<svg width="25" height="25" viewBox="0 0 25 25" fill="none" xmlns="http://www.w3.org/2000/svg">
<path fill-rule="evenodd" clip-rule="evenodd" d="M12.5 6.7002C11.2933 6.7002 10.136 7.17957 9.28266 8.03286C8.42937 8.88615 7.95 10.0435 7.95 11.2502C7.95 12.4569 8.42937 13.6142 9.28266 14.4675C9.60397 14.7888 9.96837 15.0571 10.3623 15.2668C8.93853 15.6164 7.62387 16.3495 6.56999 17.4034C6.37464 17.5987 6.19029 17.8031 6.01735 18.0154C5.93588 18.0544 5.85968 18.108 5.79267 18.1761C5.48276 18.491 5.48682 18.9975 5.80173 19.3074C7.52462 21.0029 9.89078 22.0504 12.5 22.0504C14.9583 22.0504 17.2014 21.1204 18.8936 19.5945C19.2217 19.2986 19.2478 18.7927 18.9519 18.4646C18.886 18.3916 18.8098 18.3335 18.7274 18.2906C18.698 18.2056 18.6537 18.1242 18.5941 18.0501C18.4131 17.8253 18.2193 17.6094 18.0133 17.4034C17.0275 16.4176 15.8135 15.7124 14.4955 15.3393C14.9441 15.1204 15.3577 14.8272 15.7173 14.4675C16.5706 13.6142 17.05 12.4569 17.05 11.2502C17.05 10.0435 16.5706 8.88615 15.7173 8.03286C14.864 7.17957 13.7067 6.7002 12.5 6.7002Z" fill="#234F68"/>
</svg>
