<svg width="25" height="22" viewBox="0 0 25 22" fill="none" xmlns="http://www.w3.org/2000/svg">
<path fill-rule="evenodd" clip-rule="evenodd" d="M15 18.615C14.9998 18.219 14.997 18.0076 14.9616 17.8295C14.8038 17.0361 14.1836 16.4159 13.3902 16.2581C13.197 16.2197 12.9647 16.2197 12.5 16.2197C12.0354 16.2197 11.803 16.2197 11.6098 16.2581C10.8164 16.4159 10.1963 17.0361 10.0384 17.8295C10.003 18.0076 10.0002 18.219 10 18.615H8.7169C8.37465 18.615 7.84402 18.5595 7.31158 18.4341C6.79829 18.3132 6.16625 18.1011 5.71324 17.721L5.70689 17.7157C5.48234 17.5272 5.26339 17.3435 4.99773 17.008L4.99165 17.0003L4.99163 17.0003C4.74066 16.6833 4.56761 16.4648 4.37221 16.0145C4.17639 15.5632 4.11467 15.1516 4.02711 14.5676L4.01762 14.5044L3.38738 10.3088C3.35347 10.083 3.33293 9.9352 3.34604 9.59209L3.34812 9.53671C3.3554 9.34244 3.35919 9.24143 3.38195 9.14221C3.55741 8.37725 4.04958 7.71718 4.73476 7.2704L4.73508 7.27019L10.3378 3.61356L12.4992 3.61352V3.92238H12.4993V3.61352L14.6607 3.61356L20.2634 7.27019L20.2638 7.2704C20.9489 7.71718 21.4411 8.37725 21.6166 9.14221C21.6393 9.24143 21.6431 9.34244 21.6504 9.53671L21.6525 9.59209C21.6656 9.9352 21.645 10.083 21.6111 10.3088L20.9809 14.5044L20.9714 14.5676C20.8838 15.1516 20.8221 15.5632 20.6263 16.0145C20.4309 16.4648 20.2579 16.6833 20.0069 17.0003L20.0069 17.0003L20.0069 17.0003L20.0008 17.008C19.7351 17.3435 19.5162 17.5272 19.2916 17.7156L19.2916 17.7156L19.2853 17.721C18.8323 18.1011 18.2002 18.3132 17.6869 18.4341C17.1545 18.5595 16.6239 18.615 16.2816 18.615H15ZM10.3379 3.61352L12.4992 3.6135V2.99646L12.4677 2.99634C11.7085 2.99634 10.9591 3.20803 10.3379 3.61352ZM14.6606 3.61352L12.4993 3.6135V2.99646L12.5308 2.99634C13.29 2.99634 14.0394 3.20803 14.6606 3.61352Z" fill="url(#paint0_radial_794_619)"/>
<defs>
<radialGradient id="paint0_radial_794_619" cx="0" cy="0" r="1" gradientUnits="userSpaceOnUse" gradientTransform="translate(3.34204 0.453773) rotate(50.0232) scale(23.6997 24.6618)">
<stop offset="0.046875" stop-color="#234F68"/>
<stop offset="0.983052" stop-color="#234F68" stop-opacity="0.83"/>
</radialGradient>
</defs>
</svg>
