<svg width="25" height="22" viewBox="0 0 25 22" fill="none" xmlns="http://www.w3.org/2000/svg">
<path d="M22 8.29065C22.0033 9.52062 21.4401 10.7038 20.4287 11.5919C18.1097 13.615 15.8601 15.7244 13.4556 17.6732C12.9036 18.1128 12.0287 18.0968 11.5014 17.6372L4.57108 11.5927C2.47631 9.76541 2.47631 6.81589 4.57108 4.98942C5.06617 4.55218 5.66163 4.2041 6.32137 3.96626C6.98111 3.72842 7.69138 3.60578 8.40913 3.60578C9.12687 3.60578 9.83714 3.72842 10.4969 3.96626C11.1566 4.2041 11.7521 4.55218 12.2472 4.98942L12.4999 5.20843L12.7516 4.98942C13.2477 4.55322 13.8434 4.20577 14.5029 3.96788C15.1623 3.72999 15.8721 3.60656 16.5897 3.60498C18.0337 3.60498 19.4141 4.10376 20.4277 4.98942C21.4395 5.87735 22.003 7.06057 22 8.29065V8.29065Z" stroke="#252B5C" stroke-width="1.67" stroke-linejoin="round"/>
</svg>
