<svg width="20" height="20" viewBox="0 0 20 20" fill="none" xmlns="http://www.w3.org/2000/svg">
<path fill-rule="evenodd" clip-rule="evenodd" d="M9.49945 1.96743L9.46793 1.96719C9.02111 1.96719 8.58784 2.11492 8.2366 2.38583L8.23654 2.38588L2.6334 6.70671L2.63305 6.70698C2.15804 7.07287 1.87723 7.62903 1.86324 8.21957L2.59821 14.0007C2.67088 14.5723 2.69768 14.7554 2.76685 14.9552C2.83809 15.1609 2.90042 15.2691 3.11167 15.6213C3.36213 16.039 3.5066 16.1822 3.74937 16.4228L3.75878 16.4322C3.92898 16.6009 4.26235 16.7671 4.6982 16.8884C4.953 16.9593 5.20058 17.0034 5.40021 17.0271V15.0002C5.40021 14.4108 5.56386 13.5624 6.10176 12.8153C6.69839 11.9866 7.67874 11.4002 9.00021 11.4002H10.0002C10.5896 11.4002 11.438 11.5638 12.1851 12.1017C13.0138 12.6984 13.6002 13.6787 13.6002 15.0002V17.0269C13.7996 17.0032 14.0466 16.9592 14.3007 16.8884C14.7366 16.7671 15.0699 16.6009 15.2401 16.4322L15.2495 16.4228C15.4923 16.1822 15.6368 16.039 15.8872 15.6213C16.0985 15.2691 16.1608 15.1609 16.2321 14.9552C16.3012 14.7554 16.328 14.5723 16.4007 14.0007L17.1357 8.21957C17.1217 7.62903 16.8409 7.07287 16.3659 6.70698L16.3655 6.70671L10.7624 2.38588L10.7623 2.38583C10.4111 2.11492 9.9778 1.96719 9.53098 1.96719L9.49947 1.96743V1.11885L11.7395 1.1189L17.3422 5.43942L17.3426 5.43968C18.2208 6.11633 18.7362 7.15916 18.7362 8.2659C18.7362 8.29964 18.7341 8.33334 18.7298 8.3668L17.9879 14.2025L17.9803 14.2623C17.918 14.7538 17.8734 15.1049 17.744 15.4787C17.6148 15.8519 17.4726 16.0889 17.2748 16.4186L17.2594 16.4443C16.9091 17.0283 16.6609 17.2766 16.3666 17.5684C15.9064 18.0246 15.2577 18.2829 14.7297 18.4298C14.2719 18.5572 13.8132 18.6256 13.4654 18.6441C13.4645 18.646 13.4636 18.648 13.4628 18.65H12.0002V15.5002C12.0002 15.0355 12.0002 14.8032 11.9618 14.61C11.804 13.8166 11.1838 13.1964 10.3904 13.0386C10.1972 13.0002 9.96486 13.0002 9.50021 13.0002C9.03555 13.0002 8.80323 13.0002 8.61003 13.0386C7.81665 13.1964 7.19645 13.8166 7.03864 14.61C7.00021 14.8032 7.00021 15.0355 7.00021 15.5002V18.65H5.53767C5.5368 18.6481 5.53594 18.6461 5.53508 18.6441C5.18704 18.6258 4.72766 18.5574 4.26925 18.4298C3.74124 18.2829 3.09247 18.0246 2.63228 17.5684C2.338 17.2766 2.08981 17.0283 1.73952 16.4443L1.72411 16.4186C1.52635 16.0889 1.38415 15.8519 1.25492 15.4787C1.12547 15.1049 1.08093 14.7538 1.01858 14.2623L1.01099 14.2025L0.269083 8.3668C0.264828 8.33334 0.262695 8.29964 0.262695 8.2659C0.262695 7.15916 0.778116 6.11633 1.65634 5.43968L1.65668 5.43942L7.25942 1.1189L9.49945 1.11885V1.96743ZM9.49945 1.11883L7.25948 1.11885C7.89167 0.631268 8.6688 0.367188 9.46793 0.367188L9.49945 0.367324V1.11883ZM9.49947 1.11883L11.7394 1.11885C11.1072 0.631268 10.3301 0.367188 9.53098 0.367188L9.49947 0.367324V1.11883Z" fill="#252B5C"/>
</svg>
