<svg width="25" height="22" viewBox="0 0 25 22" fill="none" xmlns="http://www.w3.org/2000/svg">
<path d="M18.3578 16.3001C16.8069 17.4838 14.7529 18.2044 12.5 18.2044C10.1092 18.2044 7.94224 17.3928 6.36292 16.0774" stroke="#252B5C" stroke-width="1.6" stroke-linecap="round"/>
<path d="M17.971 15.9206C17.8079 15.7492 17.6333 15.5845 17.4476 15.4274C16.0802 14.2701 14.2255 13.6199 12.2917 13.6199C10.3578 13.6199 8.50312 14.2701 7.13567 15.4274C6.89018 15.6351 6.66401 15.8562 6.45813 16.0885" stroke="#252B5C" stroke-width="1.6" stroke-linecap="round" stroke-linejoin="round"/>
<path d="M12.5 12.9147C13.4946 12.9147 14.4484 12.5803 15.1517 11.9851C15.8549 11.3899 16.25 10.5826 16.25 9.7409C16.25 8.89916 15.8549 8.09191 15.1517 7.49671C14.4484 6.90152 13.4946 6.56714 12.5 6.56714C11.5054 6.56714 10.5516 6.90152 9.84835 7.49671C9.14509 8.09191 8.75 8.89916 8.75 9.7409C8.75 10.5826 9.14509 11.3899 9.84835 11.9851C10.5516 12.5803 11.5054 12.9147 12.5 12.9147V12.9147Z" stroke="#252B5C" stroke-width="1.6" stroke-linecap="round" stroke-linejoin="round"/>
</svg>
